<svg width="17" height="17" viewBox="0 0 17 17" fill="none" xmlns="http://www.w3.org/2000/svg">
<path id="Vector" d="M16.4109 8.55139C16.4109 4.13189 12.8274 0.551392 8.41089 0.551392C3.99139 0.551392 0.410889 4.13189 0.410889 8.55139C0.410889 12.5434 3.33539 15.8534 7.16089 16.4529V10.8644H5.12939V8.55189H7.16089V6.78839C7.16089 4.78389 8.35339 3.67689 10.1814 3.67689C11.0569 3.67689 11.9734 3.83289 11.9734 3.83289V5.80139H10.9629C9.97089 5.80139 9.66089 6.41889 9.66089 7.05139V8.55139H11.8794L11.5229 10.8639H9.66089V16.4524C13.4834 15.8529 16.4109 12.5429 16.4109 8.55089V8.55139Z" fill="#FBFBFB"/>
</svg>
