<svg width="17" height="17" viewBox="0 0 17 17" fill="none" xmlns="http://www.w3.org/2000/svg">
<path id="Vector" d="M15.522 0.454712H1.29978C1.06403 0.454712 0.837937 0.548362 0.671238 0.715061C0.504539 0.88176 0.410889 1.10785 0.410889 1.3436V15.5658C0.410889 15.8016 0.504539 16.0277 0.671238 16.1944C0.837937 16.3611 1.06403 16.4547 1.29978 16.4547H15.522C15.7577 16.4547 15.9838 16.3611 16.1505 16.1944C16.3172 16.0277 16.4109 15.8016 16.4109 15.5658V1.3436C16.4109 1.10785 16.3172 0.88176 16.1505 0.715061C15.9838 0.548362 15.7577 0.454712 15.522 0.454712ZM13.7033 4.24582L12.8447 5.06805C12.8084 5.09571 12.7804 5.13281 12.7638 5.17529C12.7472 5.21777 12.7426 5.264 12.7504 5.30893V11.3543C12.7426 11.3992 12.7472 11.4454 12.7638 11.4879C12.7804 11.5304 12.8084 11.5675 12.8447 11.5952L13.682 12.4183V12.5996H9.46778V12.4183L10.3362 11.5756C10.4224 11.4903 10.4224 11.4645 10.4224 11.3347V6.4476L8.00822 12.5774H7.68111L4.87133 6.4476V10.556C4.86024 10.6414 4.86854 10.7282 4.89563 10.8099C4.92272 10.8916 4.96789 10.9662 5.02778 11.028L6.15756 12.3978V12.5783H2.954V12.3978L4.08378 11.028C4.14324 10.9662 4.1874 10.8913 4.21272 10.8094C4.23803 10.7274 4.2438 10.6406 4.22956 10.556V5.80582C4.2362 5.7408 4.22743 5.67512 4.20396 5.61412C4.18048 5.55312 4.14297 5.49851 4.09444 5.45471L3.09 4.24582V4.06538H6.20644L8.61533 9.34805L10.7327 4.06538H13.7042V4.24582H13.7033Z" fill="#FBFBFB"/>
</svg>
