<svg width="17" height="14" viewBox="0 0 17 14" fill="none" xmlns="http://www.w3.org/2000/svg">
<path id="Vector" d="M14.7671 3.78832C14.7777 3.93079 14.7777 4.07246 14.7777 4.21412C14.7777 8.54956 11.4779 13.5453 5.44732 13.5453C3.58939 13.5453 1.86336 13.0071 0.410889 12.0725C0.674679 12.1026 0.928699 12.1132 1.20307 12.1132C2.67915 12.1167 4.11343 11.6232 5.27472 10.712C4.59035 10.6996 3.92693 10.4738 3.37709 10.0661C2.82725 9.65847 2.41845 9.08927 2.20775 8.43802C2.41048 8.46814 2.61402 8.4885 2.82733 8.4885C3.12125 8.4885 3.41679 8.44779 3.69117 8.37696C2.94845 8.227 2.2806 7.82442 1.80117 7.23768C1.32175 6.65094 1.06034 5.91626 1.06141 5.15856V5.11785C1.49862 5.36128 2.00584 5.51353 2.54319 5.53389C2.09303 5.23475 1.72391 4.82884 1.46877 4.35236C1.21362 3.87589 1.08039 3.34366 1.08095 2.80317C1.08095 2.19418 1.24297 1.63566 1.52711 1.14879C2.35116 2.16244 3.37894 2.9917 4.54387 3.58287C5.70881 4.17403 6.98493 4.51391 8.28958 4.5805C8.2391 4.33625 8.20816 4.08304 8.20816 3.82902C8.20795 3.3983 8.29263 2.97175 8.45736 2.57377C8.62209 2.17579 8.86365 1.81418 9.16822 1.50962C9.47278 1.20505 9.8344 0.963492 10.2324 0.798759C10.6304 0.634027 11.0569 0.549347 11.4876 0.549561C12.4321 0.549561 13.2845 0.945246 13.8837 1.58518C14.6179 1.4432 15.322 1.17518 15.9647 0.792997C15.72 1.55084 15.2074 2.19345 14.5228 2.60045C15.174 2.52618 15.8104 2.35494 16.4109 2.09241C15.9624 2.74626 15.4066 3.31964 14.7671 3.78832Z" fill="#FBFBFB"/>
</svg>
